# xmcd
#
# Track frame offsets:
#	150
#	18792
#	36137
#	53492
#	63657
#	77790
#	95370
#	112262
#	124952
#	141505
#	158620
#	176675
#
# Disc length: 2552 seconds
#
# Revision: 3
# Processed by: cddbd v1.5.2PL0 Copyright (c) Steve Scherf et al.
# Submitted via: dBpowerAMP V4.0
#
DISCID=a009f60c
DTITLE=CAR LINE - Route 66
DYEAR=1993
DGENRE=Blues
TTITLE0=The eagle and child
TTITLE1=Cruisin' 66
TTITLE2=Apache movies
TTITLE3=Truck stop
TTITLE4=Taxi way
TTITLE5=Sante Fe café
TTITLE6=Blue bottle
TTITLE7=Free wheel
TTITLE8=Continental divide
TTITLE9=Bonneville
TTITLE10=Texola square
TTITLE11=Silver spoon
EXTD=
EXTT0=
EXTT1=
EXTT2=
EXTT3=
EXTT4=
EXTT5=
EXTT6=
EXTT7=
EXTT8=
EXTT9=
EXTT10=
EXTT11=
PLAYORDER=
